<?xml version="1.0" encoding="UTF-8"?>
<svg id="Layer_1" data-name="Layer 1" xmlns="http://www.w3.org/2000/svg" viewBox="0 0 580.38 580.39">
  <defs>
    <style>
      .cls-1 {
        fill: #145b54;
      }
    </style>
  </defs>
  <path class="cls-1" d="M580.38,290.64c-.13,159.71-130.42,289.95-289.86,289.75C129.7,580.19-.21,450.23,0,289.75,.21,129.34,130.55-.26,291.4,0c159.45,.26,289.11,130.65,288.97,290.64Zm-3.94-.18c.21-157.62-127.61-286.19-284.8-286.49C132.55,3.67,4.34,130.99,3.96,289.76c-.38,158.31,128.3,286.92,287.13,286.75,157-.17,285.14-128.31,285.35-286.05Z"/>
  <path class="cls-1" d="M409.06,408.46h-10.5c2.89-24-4.35-44.05-23.38-59.15-12.77-10.14-27.62-14.13-43.78-12.51-33.07,3.32-59.99,33.48-54.47,71.76-5.78,0-11.51,.07-17.23-.11-.55-.02-1.45-1.56-1.53-2.45-1.33-15.32,.83-30.13,8.11-43.75,14.87-27.84,38.24-43.33,69.84-43.96,31.9-.64,55.79,14.22,71.82,41.72,.69,1.19,1.23,2.68,1.24,4.04,.09,14.23,.06,28.46,.05,42.69,0,.49-.09,.99-.17,1.73Z"/>
  <path class="cls-1" d="M213.23,284.21c-23.35-.02-42.07-18.76-42.03-42.06,.04-23.43,18.92-42.21,42.35-42.14,22.91,.06,41.77,19.07,41.83,42.15,.06,23.12-18.93,42.07-42.15,42.05Zm.02-65.76c-13.03,.07-23.73,10.67-23.75,23.54-.02,13.26,10.75,23.97,24.04,23.9,12.85-.07,23.48-10.91,23.41-23.87-.08-12.98-10.79-23.63-23.7-23.57Z"/>
  <path class="cls-1" d="M208.19,408.58c-7.63,0-15.26-.08-22.89,.05-2.11,.04-3.42-.64-4.55-2.38-7.34-11.23-7.23-26.1,.36-37.01,7.98-11.46,21.65-16.65,35.31-13.4,12.85,3.06,22.98,14.19,24.75,27.47,1.11,8.37-.55,16.24-5.47,23.2-.73,1.04-2.42,1.94-3.68,1.97-7.94,.18-15.88,.09-23.82,.09Z"/>
  <path class="cls-1" d="M409.23,269.91c.02,15.22-12.27,27.6-27.43,27.64-15.11,.04-27.64-12.35-27.74-27.43-.1-15.27,12.31-27.68,27.69-27.7,15.26-.02,27.46,12.19,27.48,27.49Z"/>
  <path class="cls-1" d="M409.39,72.73c-.37,1.81-.51,3.7-1.15,5.4-2.07,5.59-4.15,11.19-6.55,16.64-3.25,7.37-8.38,9.86-16.02,7.26-8.55-2.91-16.99-6.22-25.26-9.86-7.2-3.17-9.32-8.51-6.77-15.98,1.99-5.83,4.24-11.59,6.73-17.23,3.13-7.07,8.55-9.56,15.9-7.01,8.44,2.93,16.75,6.28,25,9.72,4.74,1.98,8.06,5.36,8.12,11.06Zm-23.7,18.19c.93-.8,2.71-1.63,3.33-2.99,2.01-4.39,3.64-8.96,5.34-13.49,.85-2.26,.12-4.34-1.97-5.26-4.69-2.08-9.5-3.92-14.35-5.62-2.38-.84-4.31,.28-5.27,2.59-1.78,4.28-3.51,8.58-5.06,12.95-1.06,2.99-.2,5,2.77,6.29,4.15,1.8,8.42,3.33,12.64,4.95,.57,.22,1.2,.28,2.56,.59Z"/>
  <path class="cls-1" d="M60.31,177.32c2.34,1.58,4.67,2.93,6.68,4.65,.55,.47,.54,2.17,.18,3.06-3.07,7.75-6.36,15.42-9.37,23.19-.51,1.33-.61,3.48,.13,4.5,1.7,2.33,4.36,1.52,5.63-1.61,2.09-5.15,4.04-10.36,6.01-15.55,5.13-13.51,11.05-12.95,21.74-7.6,5,2.5,7.04,6.86,5.15,12.16-4.14,11.63-8.76,23.08-13.22,34.59-.36,.92-1.06,1.71-1.63,2.6-2.6-2.65-5.01-5.1-7.52-7.65,2.9-7.21,5.93-14.72,8.95-22.24,.38-.95,.69-1.94,1.08-2.89,.85-2.1,.76-3.77-1.68-4.77-2.68-1.1-3.8,.38-4.63,2.53-1.82,4.7-3.63,9.41-5.44,14.12-.3,.77-.57,1.55-.86,2.32-4.52,11.97-12.03,12.93-23.18,5.18-3.4-2.36-4.33-6.46-3.04-10.06,4.18-11.6,8.86-23.03,13.4-34.5,.28-.71,.98-1.26,1.61-2.03Z"/>
  <path class="cls-1" d="M446.69,145.52c.59-.37,.75-.53,.93-.57,3-.7,6.42-2.58,8.9-1.73,2.41,.82,3.87,4.44,5.73,6.84,3.73,4.8,7.43,9.63,11.18,14.41,1.12,1.43,2.38,2.67,4.44,1.56,2.36-1.27,2.83-3.01,1.09-5.31-3.23-4.27-6.61-8.44-9.93-12.65-.45-.57-.9-1.13-1.34-1.7-6.49-8.56-5.79-13.61,2.77-19.97,6.02-4.48,11.75-4.02,16.64,1.75,4.93,5.82,9.58,11.87,14.28,17.88,2.15,2.76,4.17,5.63,6.15,8.51,.67,.98,1.04,2.16,1.66,3.49-3.04,1.42-5.81,2.71-8.59,4.01-5.23-6.9-10.38-13.7-15.55-20.49-.75-.98-1.42-2.29-2.44-2.72-1.18-.51-2.88-.66-4.03-.19-1.68,.69-1.92,2.4-.83,3.9,1.93,2.67,4.02,5.22,6,7.86,2.78,3.71,5.78,7.28,8.2,11.21,3.26,5.29,2.56,9.42-2.23,13.39-2.65,2.2-5.65,4.16-8.8,5.51-3.7,1.58-7.38,.16-9.77-2.79-7.92-9.76-15.56-19.74-23.28-29.66-.54-.69-.76-1.62-1.18-2.54Z"/>
  <path class="cls-1" d="M239.55,69.24c.47,2.35,.87,4.35,1.35,6.71,6.67-1.33,13.19-2.63,19.71-3.94,3.23-.65,6.45-1.4,9.7-1.92,.86-.14,2.18,.07,2.68,.65,1.93,2.24,3.61,4.69,5.98,7.86-17.11,3.49-33.55,6.85-50.27,10.27-2.92-14.51-5.75-28.59-8.62-42.86,15.7-3.16,31.01-6.25,46.71-9.41,.67,3.31,1.3,6.37,2.01,9.87-10.88,2.21-21.52,4.37-32.51,6.59,.41,2.01,.79,3.85,1.23,5.99,8.12-1.61,15.96-3.16,24.03-4.75,.69,3.29,1.34,6.39,2.1,10.01-7.96,1.64-15.85,3.26-24.1,4.95Z"/>
  <path class="cls-1" d="M130.87,149.38c-3.56-15.7-7-30.74-10.33-45.82-.19-.85,.26-2.24,.91-2.8,3.97-3.45,8.03-6.79,12.18-10.02,.69-.54,2.15-.76,2.94-.42,13.84,6.12,27.63,12.36,41.43,18.58,.36,.16,.67,.46,1.23,.85-3.75,3.08-7.33,6.16-11.11,8.98-.68,.51-2.47,.34-3.24-.22-3.91-2.82-7.02-2.24-10.4,1.15-3.34,3.34-7.15,6.24-10.97,9.04-2,1.47-2.73,3.02-1.76,5.18,1.9,4.23,.47,7.03-3.27,9.39-2.58,1.62-4.79,3.81-7.61,6.1Zm2.3-46.79c1.65,6.34,3.06,11.79,4.59,17.66,4.1-3.37,7.77-6.39,11.77-9.68-5.52-2.69-10.53-5.13-16.37-7.98Z"/>
  <path class="cls-1" d="M103.48,166.96c3.38,2.43,6.45,4.63,9.66,6.94-2.81,3.97-5.46,7.72-8.32,11.77-11.9-8.39-23.7-16.7-35.75-25.19,1.6-2.27,3.35-4.77,5.13-7.27,4.89-6.88,9.74-13.79,14.7-20.62,1.32-1.82,2.86-3.54,4.56-5,3.47-2.98,7.39-3.59,11.4-1.13,3.07,1.88,6.11,3.83,8.94,6.05,5.99,4.69,7.03,10.1,2.88,16.51-3.35,5.17-7.22,10.01-10.88,14.99-.66,.91-1.39,1.77-2.32,2.95Zm-17.62-12.47c3.34,2.37,6.49,4.6,9.79,6.94,2.46-3.44,4.79-6.69,7.11-9.96,4.27-6.02,4.06-6.81-2.11-10.73-2.39-1.52-4.2-1.22-5.8,1.04-2.91,4.12-5.82,8.23-8.99,12.7Z"/>
  <path class="cls-1" d="M395.85,106.82c12.83-6.28,25.36-12.04,37.49-18.55,4.88-2.62,8.24-2.45,12.04,1.39,2.37,2.4,5.43,4.09,8,6.31,.75,.65,1.39,2.11,1.21,3.03-2.77,14.77-5.67,29.52-8.55,44.27-.08,.39-.29,.75-.59,1.53-3.96-3.03-7.83-5.85-11.48-8.94-.61-.52-.62-2.32-.27-3.3,1.47-4.09,.78-6.94-3.25-9.38-4.3-2.6-8.17-5.93-12.06-9.14-1.64-1.36-3.02-1.57-4.61-.33-3.98,3.11-7.31,2.09-10.66-1.21-2.03-2.01-4.51-3.56-7.26-5.68Zm29.91,0c4.21,3.23,7.97,6.12,12.07,9.27,1.37-6.02,2.62-11.45,3.89-17.02-.67,0-1.01-.1-1.24,.02-4.73,2.46-9.44,4.95-14.72,7.73Z"/>
  <path class="cls-1" d="M203.36,51.86c.3,.46,.46,.62,.51,.81,2.32,8.39,2.31,8.36-5.57,11.86-4.89,2.17-9.75,4.4-14.58,6.7-4.71,2.25-5.26,3.86-3.08,8.49,1.57,3.35,3.16,6.7,4.8,10.02,1.97,3.97,3.64,4.67,7.66,2.73,7.04-3.4,14.03-6.9,20.92-10.6,1.81-.97,3-1.24,4.6,.14,1.62,1.39,3.46,2.5,5.82,4.17-2.46,2-4.34,4.14-6.7,5.35-9.24,4.73-18.5,9.47-28.01,13.62-6.72,2.93-11.85,.92-15.39-5.51-3.07-5.58-5.87-11.35-8.3-17.23-2.81-6.8-1.06-12.87,5.25-16.23,9.25-4.92,18.88-9.13,28.39-13.56,1.14-.53,2.53-.54,3.68-.76Z"/>
  <path class="cls-1" d="M348.57,43.58c-1.22,3.17-2.32,6.02-3.47,9-6.52-.96-12.91-1.9-19.31-2.83-1.22-.18-2.45-.31-3.68-.44-6.55-.68-7.42,.01-8.26,6.65-.39,3.07-.71,6.14-1.13,9.21-.66,4.83,.48,6.51,5.32,7.06,7.68,.87,15.37,1.69,23.08,2.26,2.11,.15,3.12,.81,3.73,2.74,.62,1.95,1.52,3.8,2.39,5.91-4,2.06-8.14,1.78-12.17,1.38-8.31-.83-16.59-1.86-24.87-2.98-9.23-1.24-12.99-6.01-12.09-15.26,.53-5.43,1.16-10.87,1.99-16.26,1.25-8.14,6.07-12.43,14.27-11.75,10.05,.83,20.04,2.42,30.04,3.78,1.35,.18,2.63,.96,4.14,1.54Z"/>
  <path class="cls-1" d="M312.02,222.11c-10.52,.03-19.18-8.55-19.14-18.95,.05-10.41,8.45-18.89,18.8-18.97,10.6-.08,19.18,8.27,19.29,18.78,.11,10.46-8.46,19.11-18.95,19.14Z"/>
  <path class="cls-1" d="M517.11,169.57c6.72,15.24,13.36,30.29,20.17,45.71-3,1.33-5.95,2.65-9.19,4.09-2.46-5.5-4.83-10.82-7.29-16.33-10.29,4.52-20.35,8.94-30.77,13.52-1.9-4.29-3.75-8.48-5.8-13.13,10.21-4.53,20.31-9,30.73-13.62-2.32-5.33-4.6-10.56-7.04-16.18,3.06-1.35,6.01-2.66,9.2-4.07Z"/>
  <path class="cls-1" d="M74.25,296.56c.04,9.51-7.29,16.83-16.8,16.79-9.09-.04-16.42-7.34-16.56-16.5-.14-9.15,7.34-16.71,16.59-16.79,9.35-.07,16.73,7.19,16.77,16.5Z"/>
  <path class="cls-1" d="M506.13,296.62c0-9.28,7.34-16.57,16.71-16.57,9.23,0,16.73,7.53,16.64,16.72-.09,9.13-7.43,16.52-16.49,16.59-9.49,.07-16.86-7.25-16.87-16.74Z"/>
  <path class="cls-1" d="M438.17,447.61c7.5,9.38,14.88,18.63,22.52,28.19-1.62,1.34-3.15,2.61-5.04,4.16-5.39-7.03-10.66-13.91-15.94-20.79-.13,.07-.27,.13-.4,.2,2.53,7.91,5.04,15.83,7.59,23.73,.55,1.69,1.11,3.02-.78,4.57-1.97,1.61-3.11,.5-4.57-.37-7.09-4.2-14.18-8.38-21.62-12.24,5.5,6.61,10.99,13.22,16.68,20.06-1.78,1.42-3.28,2.62-5.08,4.05-7.53-9.42-14.97-18.72-22.64-28.3,1.92-1.55,3.64-3.17,5.6-4.38,.67-.41,2.13-.09,2.95,.39,6.32,3.69,12.56,7.5,18.84,11.26,1.22,.73,2.46,1.42,4.36,2.51-2.47-7.58-4.7-14.49-6.95-21.38q-2.18-6.68,3.31-10.89c.24-.19,.51-.34,1.16-.77Z"/>
  <path class="cls-1" d="M384.18,497.31c3.99,7.27,7.98,14.55,12.14,22.12-2.01,1.06-3.78,1.99-5.77,3.03-5.62-10.74-11.14-21.3-16.64-31.82,.21-.26,.3-.47,.46-.56q6.4-3.92,11.99,1.07c5.35,4.78,10.69,9.57,16.7,14.95-.84-6.83-1.58-12.8-2.32-18.77-.33-2.66-.55-5.33-1.02-7.96-.35-1.96,.26-3.07,2.11-3.79,1.61-.63,3.1-1.56,5.03-2.55,5.63,10.74,11.18,21.33,16.82,32.1-2.02,1.06-3.73,1.95-5.8,3.03-3.84-7.73-7.62-15.34-11.41-22.95-.17,0-.34,.02-.51,.02,.25,2.62,.46,5.25,.77,7.87,.69,5.83,1.28,11.68,2.22,17.47,.51,3.15-2.03,3.03-3.76,4.34-6.84-6.05-13.67-12.08-20.49-18.11-.17,.17-.34,.35-.5,.52Z"/>
  <path class="cls-1" d="M157.62,460.79c-8.85,8.98-17.23,17.49-25.44,25.82-1.43-1.26-2.89-2.54-4.67-4.11,6.44-6.17,12.65-12.11,18.86-18.05-.07-.13-.15-.27-.22-.4-4.01,1.76-8.03,3.51-12.04,5.29-3.76,1.67-7.55,3.29-11.25,5.09-1.62,.79-2.66,.72-4.02-.61-1.33-1.3-1.18-2.32-.52-3.77,3.35-7.3,6.63-14.62,9.93-21.94,.24-.53,.44-1.08,1-2.47-6.61,6.87-12.58,13.08-18.81,19.56-1.48-1.73-2.78-3.25-3.99-4.67,8.19-8.24,16.61-16.71,25.07-25.22,.05,.02,.28,.05,.41,.17q5.59,5.11,2.43,12.06c-2.94,6.44-5.89,12.87-9.19,20.08,2.89-1.27,5.1-2.21,7.28-3.2,5.62-2.55,11.27-5.05,16.84-7.73,1.93-.93,3.29-.97,4.73,.83,1.08,1.35,2.57,2.36,3.61,3.29Z"/>
  <path class="cls-1" d="M275.6,295.29c-.01,8.15-6.68,14.78-14.79,14.7-8.15-.08-14.63-6.71-14.56-14.91,.06-8,6.61-14.51,14.61-14.54,8.14-.03,14.75,6.59,14.74,14.74Z"/>
  <path class="cls-1" d="M139.88,492.69c7.12-9.98,13.98-19.6,21.15-29.64,4.41,3.33,8.77,6.37,12.84,9.78,3.1,2.59,4.79,6.01,3.31,10.18-1.52,4.29-4.61,6.45-8.89,6.15,0,2.75,.68,5.65-.13,8.04-2.1,6.17-8.43,8.14-14.48,4.98-1.18-.62-2.32-1.34-3.42-2.1-3.36-2.36-6.7-4.77-10.37-7.39Zm8.2-.39c2.59,1.75,4.72,3.39,7.05,4.69,2.7,1.51,5.27,.73,7.01-1.77,1.82-2.62,1.63-5.06-.85-7.12-2.1-1.75-4.42-3.24-6.73-4.92-2.23,3.14-4.25,5.98-6.48,9.11Zm9.12-12.79c2.74,1.68,5.07,3.34,7.61,4.58,2.27,1.11,4.16,0,5.56-1.94,1.38-1.91,1.47-3.97-.24-5.58-2.11-1.98-4.52-3.63-6.93-5.52-2.1,2.96-3.87,5.45-6.01,8.46Z"/>
  <path class="cls-1" d="M219.21,517.6c.78,5.64,1.52,11.03,2.26,16.45-5.29-.45-6.28-1.33-7.02-6.21-.3-1.93-.91-3.9-.75-5.8,.42-5.16-2.73-6.71-7.26-7.48-1.55,4.08-3.13,8.26-4.82,12.69-1.95-.71-3.74-1.36-5.97-2.17,4.19-11.37,8.33-22.58,12.58-34.11,5.12,1.98,9.99,3.62,14.64,5.74,5.03,2.29,7.14,6.06,6.68,10.73-.5,4.98-3.54,8.32-8.89,9.76-.39,.1-.78,.22-1.46,.41Zm-10.95-8.12c2.84,.98,5.22,1.95,7.68,2.6,2.99,.78,5.53-.68,6.67-3.53,1.24-3.1,.45-5.87-2.48-7.35-2.41-1.22-5.03-2.03-7.67-3.07-1.44,3.91-2.75,7.43-4.2,11.36Z"/>
  <path class="cls-1" d="M485.71,420.88c5.38,.61,10.8,1.23,16.22,1.85-1.53,5.06-2.92,5.99-7.77,5.32-1.73-.24-3.47-.46-5.21-.64-6.84-.71-5.25-2.01-9.62,5.04,3.66,2.57,7.33,5.16,11.15,7.84-1.21,1.8-2.28,3.4-3.53,5.26-10.03-6.88-19.89-13.65-30.13-20.68,3.64-4.84,6.69-9.81,10.63-13.92,5.47-5.71,14.38-3.69,17.19,3.55,.72,1.85,.69,3.99,1.06,6.38Zm-10.8,8.62c1.59-2.43,3.16-4.48,4.37-6.72,1.61-2.97,.82-5.62-1.91-7.51-2.79-1.93-5.48-1.77-7.69,.79-1.71,1.98-3.1,4.24-4.75,6.54,3.44,2.37,6.54,4.51,9.99,6.89Z"/>
  <path class="cls-1" d="M94.59,408.62c4.67-2.31,8.9-4.4,13.42-6.63,.97,1.89,1.88,3.66,2.91,5.67-10.82,5.4-21.39,10.67-32.35,16.14-.96-1.8-1.88-3.55-3-5.65,4.87-2.44,9.5-4.77,14.35-7.2-2.4-4.84-4.68-9.41-7.11-14.3-4.78,2.34-9.43,4.62-14.4,7.06-.95-1.91-1.83-3.69-2.83-5.7,10.86-5.42,21.52-10.73,32.39-16.16,.98,1.92,1.89,3.71,2.9,5.69-4.49,2.26-8.78,4.43-13.42,6.76,2.39,4.81,4.7,9.44,7.13,14.32Z"/>
  <path class="cls-1" d="M378.85,515.62c.04,8.43-3.3,13.25-9.8,15.57-6.19,2.2-12.49,.44-16.49-5.04-3.8-5.21-5.73-11.17-5.36-17.69,.35-6.12,4.5-11,10.52-12.72,6.21-1.77,12.08,.12,15.86,5.4,3.37,4.72,5.05,10.09,5.27,14.48Zm-6.21,1.75c-.36-4.29-1.7-9.21-4.8-13.48-2.17-2.99-5.45-4-8.73-3.03-3.29,.98-5.61,3.64-5.66,7.28-.09,5.7,1.57,10.99,5.11,15.49,2.44,3.1,5.62,3.76,9.12,2.42,3.23-1.24,4.92-3.87,4.96-8.69Z"/>
  <path class="cls-1" d="M273.23,520.71c-.69,3.41-1.07,6.92-2.13,10.21-2.64,8.12-8.71,11.82-16.77,10.62-7.18-1.06-12.23-7.05-12.15-15.16,.04-3.74,.68-7.61,1.81-11.18,2.46-7.76,9.04-11.6,16.69-10.3,7.67,1.31,12.2,7.16,12.56,15.81Zm-25.18,5.06c.19,.05,.39,.09,.58,.14,0,.82-.07,1.65,.01,2.47,.42,4.46,2.88,7.36,6.8,8.04,3.86,.68,7.57-1.16,8.8-5.55,1.25-4.45,1.91-9.23,1.83-13.85-.07-4.12-2.9-6.41-6.63-6.98-3.59-.55-6.88,1.03-8.4,4.84-1.38,3.48-2.03,7.25-3,10.9Z"/>
  <path class="cls-1" d="M102.63,443.46c-2.43-3.34-4.68-6.3-6.78-9.36-.97-1.42-1.96-2.04-3.58-1.19-.27,.14-.59,.18-.89,.27q-5.6,1.72-9.05-3.82c2.51-.72,4.92-1.44,7.34-2.11,9.23-2.56,18.48-5.03,27.67-7.71,1.96-.57,2.85,.19,3.71,1.61,.81,1.32,2.2,2.25,.83,4.28-6.79,10.08-13.4,20.29-20.24,30.69-1.39-1.9-2.66-3.61-3.96-5.39,1.68-2.48,3.3-4.86,4.94-7.28Zm12.23-17.42c-5.5,1.68-10.13,3.09-15.1,4.61,2.14,2.94,3.99,5.47,6.05,8.3,2.98-4.25,5.73-8.17,9.05-12.91Z"/>
  <path class="cls-1" d="M191.59,518.21c-.81,1.55-1.51,2.88-2.36,4.49-7.11-3.75-13.99-7.37-21.05-11.09,5.67-10.73,11.23-21.27,16.95-32.1,7.02,3.71,13.87,7.33,20.88,11.04-.81,1.58-1.5,2.93-2.34,4.56-5.12-2.67-10.1-5.26-15.28-7.96-1.52,2.86-2.95,5.56-4.58,8.63,4.32,2.31,8.54,4.56,13.07,6.99-.75,1.42-1.44,2.73-2.34,4.42-4.35-2.25-8.59-4.44-13.12-6.78-1.68,3.15-3.32,6.2-5.14,9.61,5.11,2.74,10.14,5.43,15.3,8.2Z"/>
  <path class="cls-1" d="M456.03,426.99c1.34,1.21,2.47,2.22,3.83,3.44-3.81,4.27-7.55,8.46-11.46,12.84,2.49,2.26,4.83,4.38,7.27,6.58,3.36-3.71,6.54-7.21,9.93-10.95,1.27,1.14,2.44,2.19,3.76,3.37-3.32,3.71-6.46,7.23-9.87,11.03,2.73,2.46,5.35,4.83,8.12,7.33,3.96-4.36,7.76-8.55,11.67-12.86,1.29,1.17,2.42,2.19,3.79,3.43-5.36,5.94-10.57,11.71-15.94,17.67-9.01-8.13-17.8-16.06-26.94-24.3,5.28-5.86,10.47-11.62,15.84-17.57Z"/>
  <path class="cls-1" d="M485.79,373.51c2.59-7.59,5.04-14.78,7.59-22.28,1.66,.5,3.16,.95,4.92,1.48-1.86,5.56-3.63,10.87-5.47,16.38,3.18,1.09,6.05,2.08,9.21,3.16,1.69-4.82,3.27-9.33,4.91-14,1.67,.58,3.08,1.07,4.7,1.63-1.58,4.77-3.08,9.32-4.64,14.05,3.51,1.2,6.7,2.3,10.29,3.53,1.88-5.43,3.75-10.81,5.68-16.4,1.75,.61,3.17,1.11,4.81,1.68-2.57,7.53-5.07,14.87-7.66,22.47-11.53-3.93-22.79-7.76-34.34-11.7Z"/>
  <path class="cls-1" d="M504.31,392.54c.91-1.8,1.77-3.54,2.83-5.63,3.81,2.47,6.18,5.59,6.51,10,.73,10-7.46,17.63-17.27,15.85-5.87-1.06-11.16-3.73-15.4-8-5.07-5.11-5.39-12.34-1.12-18.67,3.67-5.44,9.55-7.19,16.01-4.55-.57,1.18-1.21,2.31-1.67,3.51-.58,1.52-1.45,2.02-3.08,1.57-3.2-.88-5.61,.29-7.31,3.11-1.97,3.28-2.19,6.36,.07,8.9,4.41,4.97,10.17,7.67,16.71,8.38,3.34,.36,5.71-1.77,7.06-5.38,1.13-3.02,.71-5.66-1.85-7.8-.47-.39-.92-.79-1.48-1.28Z"/>
  <path class="cls-1" d="M85.33,383.5c-.68-2.05-1.29-3.88-1.92-5.79,2.73-1.79,5.33-3.5,4.97-7.25-.51-5.29-4.1-8.65-9.49-7.67-4.38,.79-8.72,2.4-12.76,4.32-3.77,1.79-4.89,5.01-3.98,8.44,1.18,4.46,3.09,5.89,7.9,6.17,.7,.04,1.64,.69,1.95,1.32,.64,1.26,.92,2.7,1.35,4.06-4.14,1.83-9.24,.54-12.61-3.14-6.73-7.33-5.32-18.08,3.25-23.06,4.94-2.87,10.31-4.71,16.16-4.45,6.74,.3,11.89,5.07,13.23,12.16,1.29,6.82-1.33,11.82-8.06,14.89Z"/>
  <path class="cls-1" d="M340.02,526.76c2.01-.3,3.9-.59,5.79-.88,1.19,7.33-3.82,13.35-11.71,14.4-7.52,1-13.58-2.31-15.85-9.74-1.42-4.63-2.05-9.71-1.93-14.56,.18-7.09,5.93-12.03,13.57-12.77,6.81-.65,11.98,3.04,14.03,10.27-2,.33-3.96,.66-6.12,1.01-1.37-4.37-3.99-6.6-8.61-5.85-4,.65-6.82,3.44-6.68,7.95,.12,4.07,.76,8.22,1.83,12.15,1.33,4.88,4.52,6.97,8.49,6.48,4.71-.58,6.49-2.6,7.18-8.46Z"/>
  <path class="cls-1" d="M284.81,523.54h14.06v4.89h-14.56v15.18h-6.19v-35.87h23.06v5.14h-16.37v10.66Z"/>
</svg>